<svg width="48" height="48" viewBox="0 0 48 48" fill="none" xmlns="http://www.w3.org/2000/svg">
<g clip-path="url(#clip0_30_81)">
<path d="M0.472824 15.2876C1.46282 10.5986 5.1652 5.0426 10.9548 3.92472C12.3768 3.66485 13.8378 3.70953 15.2413 4.05581C16.6448 4.40209 17.9589 5.0421 19.0968 5.9336C20.3907 6.90381 21.4402 8.16278 22.1615 9.61023C22.8829 11.0577 23.2563 12.6536 23.2519 14.2708C23.2475 15.8881 22.8656 17.4819 22.1364 18.9255C21.4072 20.369 20.3509 21.6223 19.0518 22.5855C17.7162 23.6265 16.143 24.3196 14.4734 24.6026C12.8038 24.8856 11.09 24.7497 9.48595 24.207C9.40816 24.1788 9.32459 24.1704 9.24276 24.1826C9.16093 24.1948 9.08341 24.2271 9.0172 24.2767C8.94938 24.3277 8.89529 24.3947 8.85981 24.4717C8.82433 24.5488 8.80857 24.6334 8.81395 24.7181C9.28232 35.0831 18.5778 39.1353 20.4367 39.8426C20.728 39.9532 20.9729 40.1596 21.1313 40.428C21.2896 40.6963 21.3519 41.0105 21.3078 41.319C21.3078 41.319 21.0708 43.0593 21.0704 43.0616C21.0386 43.2666 20.9614 43.4619 20.8446 43.6333C20.7278 43.8048 20.5743 43.9481 20.3953 44.0528C20.2162 44.1575 20.016 44.221 19.8093 44.2387C19.6026 44.2564 19.3946 44.2278 19.2003 44.1551C-2.0123 35.5436 -0.496926 19.8825 0.472824 15.2876ZM19.6053 42.7001L19.8082 41.2083C17.5949 40.3477 7.81757 35.9205 7.31432 24.786C7.29746 24.4576 7.3616 24.1301 7.50109 23.8323C7.64058 23.5346 7.85115 23.2757 8.11425 23.0785C8.37734 22.8812 8.6849 22.7517 9.00983 22.7013C9.33476 22.6509 9.6671 22.6812 9.97757 22.7895C11.3475 23.2505 12.8104 23.3643 14.2351 23.1206C15.6598 22.8769 17.0018 22.2834 18.1406 21.3933C19.2566 20.5698 20.1644 19.4965 20.7913 18.2593C21.4182 17.0221 21.7467 15.6553 21.7507 14.2683C21.7547 12.8813 21.4339 11.5127 20.8142 10.2719C20.1944 9.0311 19.2928 7.95261 18.1814 7.12272C17.2123 6.36044 16.0924 5.81251 14.8958 5.51515C13.6992 5.21779 12.4531 5.17776 11.2398 5.39772C6.12182 6.38622 2.83232 11.3778 1.94132 15.5977C1.03495 19.893 -0.362677 34.5142 19.6049 42.7005L19.6053 42.7001Z" fill="currentColor"/>
<path d="M15.2654 8.25072C15.3574 8.2861 15.4415 8.33925 15.5129 8.40712C15.5843 8.475 15.6416 8.55627 15.6816 8.6463C15.7216 8.73634 15.7435 8.83336 15.746 8.93185C15.7484 9.03033 15.7315 9.12834 15.6961 9.22028C15.6608 9.31223 15.6076 9.3963 15.5397 9.4677C15.4719 9.5391 15.3906 9.59644 15.3006 9.63643C15.2105 9.67642 15.1135 9.69829 15.015 9.70079C14.9165 9.70328 14.8185 9.68635 14.7266 9.65097C14.6984 9.63972 11.9343 8.6066 10.3267 10.5952C10.2648 10.6719 10.1884 10.7356 10.1018 10.7827C10.0153 10.8298 9.92028 10.8594 9.82229 10.8698C9.72431 10.8802 9.62522 10.8713 9.53071 10.8434C9.4362 10.8155 9.3481 10.7693 9.27145 10.7073C9.1948 10.6454 9.13109 10.569 9.08398 10.4825C9.03686 10.3959 9.00725 10.3009 8.99683 10.2029C8.98642 10.105 8.99541 10.0059 9.02329 9.91136C9.05117 9.81685 9.0974 9.72875 9.15932 9.6521C11.4464 6.82385 15.1106 8.1911 15.2654 8.25072ZM35.7048 3.92472C37.1268 3.66485 38.5878 3.70953 39.9913 4.05581C41.3948 4.40209 42.7089 5.0421 43.8468 5.9336C45.1407 6.90381 46.1902 8.16278 46.9115 9.61023C47.6329 11.0577 48.0063 12.6536 48.0019 14.2708C47.9975 15.8881 47.6155 17.4819 46.8864 18.9255C46.1572 20.369 45.1009 21.6223 43.8018 22.5855C42.4662 23.6265 40.893 24.3196 39.2234 24.6026C37.5538 24.8856 35.84 24.7497 34.2359 24.207C34.1582 24.1788 34.0746 24.1704 33.9928 24.1826C33.9109 24.1948 33.8334 24.2271 33.7672 24.2767C33.6994 24.3277 33.6453 24.3947 33.6098 24.4717C33.5743 24.5488 33.5586 24.6334 33.5639 24.7181C34.0323 35.0831 43.3278 39.1353 45.1867 39.8426C45.478 39.9532 45.7229 40.1596 45.8813 40.428C46.0396 40.6963 46.1019 41.0105 46.0578 41.319C46.0578 41.319 45.8208 43.0593 45.8204 43.0616C45.7886 43.2666 45.7114 43.4619 45.5946 43.6333C45.4778 43.8048 45.3243 43.9481 45.1453 44.0528C44.9662 44.1575 44.766 44.221 44.5593 44.2387C44.3526 44.2564 44.1446 44.2278 43.9503 44.1551C22.7377 35.5436 24.2531 19.8825 25.2228 15.2876C26.2128 10.5986 29.9152 5.0426 35.7048 3.92472ZM44.3553 42.7005L44.5589 41.2083C42.3453 40.3477 32.5679 35.9205 32.0647 24.786C32.0478 24.4576 32.112 24.1301 32.2515 23.8323C32.391 23.5346 32.6015 23.2757 32.8646 23.0785C33.1277 22.8812 33.4353 22.7517 33.7602 22.7013C34.0851 22.6509 34.4175 22.6812 34.7279 22.7895C36.0978 23.2505 37.5608 23.3643 38.9855 23.1206C40.4102 22.8769 41.7521 22.2834 42.8909 21.3933C44.007 20.5698 44.9148 19.4965 45.5417 18.2593C46.1685 17.0221 46.4971 15.6553 46.5011 14.2683C46.5051 12.8813 46.1843 11.5127 45.5645 10.2719C44.9448 9.0311 44.0431 7.95261 42.9318 7.12272C41.9627 6.36044 40.8428 5.81251 39.6462 5.51515C38.4495 5.21779 37.2034 5.17776 35.9902 5.39772C30.8722 6.38622 27.5827 11.3778 26.6917 15.5977C25.7853 19.893 24.3877 34.5142 44.3553 42.7005Z" fill="currentColor"/>
<path d="M40.0154 8.25079C40.1073 8.28617 40.1914 8.33932 40.2628 8.40719C40.3342 8.47507 40.3915 8.55634 40.4315 8.64637C40.4715 8.7364 40.4934 8.83343 40.4959 8.93191C40.4983 9.0304 40.4814 9.12841 40.446 9.22035C40.4107 9.31229 40.3575 9.39636 40.2896 9.46777C40.2218 9.53917 40.1405 9.5965 40.0505 9.6365C39.9604 9.67649 39.8634 9.69836 39.7649 9.70085C39.6664 9.70335 39.5684 9.68642 39.4765 9.65104C39.4484 9.63979 36.6842 8.60666 35.0766 10.5953C34.9486 10.7457 34.7677 10.8412 34.5714 10.8621C34.375 10.8829 34.1781 10.8276 34.0214 10.7074C33.9447 10.6455 33.881 10.5691 33.8339 10.4826C33.7868 10.3961 33.7572 10.3012 33.7468 10.2032C33.7364 10.1052 33.7453 10.0062 33.7732 9.91171C33.8011 9.81723 33.8473 9.72916 33.9092 9.65254C36.1964 6.82391 39.8605 8.19116 40.0154 8.25079Z" fill="currentColor"/>
</g>
<defs>
<clipPath id="clip0_30_81">
<rect width="48" height="48" fill="currentColor" transform="matrix(-1 0 0 1 48 0)"/>
</clipPath>
</defs>
</svg>
